<svg xmlns="http://www.w3.org/2000/svg" version="1.1" xmlns:xlink="http://www.w3.org/1999/xlink" xmlns:svgjs="http://svgjs.dev/svgjs" width="1000" height="386" viewBox="0 0 1000 386"><g transform="matrix(1,0,0,1,-0.6060606060606233,0.5254130643956785)"><svg viewBox="0 0 396 153" data-background-color="#00020c" preserveAspectRatio="xMidYMid meet" height="386" width="1000" xmlns="http://www.w3.org/2000/svg" xmlns:xlink="http://www.w3.org/1999/xlink"><g id="tight-bounds" transform="matrix(1,0,0,1,0.2400000000000091,-0.20825958251953125)"><svg viewBox="0 0 395.52 153.41651638158487" height="153.41651638158487" width="395.52"><g><svg viewBox="0 0 395.52 153.41651638158487" height="153.41651638158487" width="395.52"><g><svg viewBox="0 0 637.3012913213038 247.2" height="153.41651638158487" width="395.52"><g transform="matrix(1,0,0,1,254.53215838072987,0)"><svg viewBox="0 0 382.76913294057385 247.2" height="247.2" width="382.76913294057385"><g id="textblocktransform"><svg viewBox="0 0 382.76913294057385 247.2" height="247.2" width="382.76913294057385" id="textblock"><g><svg viewBox="0 0 382.76913294057385 247.2" height="247.2" width="382.76913294057385"><g transform="matrix(1,0,0,1,0,0)"><svg width="382.76913294057385" viewBox="0.39999866485595703 -29.299999237060547 184.18442504882813 114.19999694824219" height="247.2" data-palette-color="url(#781eb940-c74b-4fb2-b9b5-bbf92b599421)"><g transform="matrix(1,0,0,1,0,0)"><g><svg width="12.056279296875" viewBox="1.7799999713897705 -36.36000061035156 74.20999908447266 36.36000061035156" height="5.907" data-palette-color="url(#781eb940-c74b-4fb2-b9b5-bbf92b599421)" id="scriptelement" x="172.5281407718308" y="67.393"></svg></g></g><svg></svg><svg></svg><svg></svg><g class="wordmark-text-0" data-fill-palette-color="primary" id="text-0"></g></svg></g></svg></g></svg></g></svg></g><g transform="matrix(1,0,0,1,0,8.137076666299336)"><svg viewBox="0 0 236.55132415727465 230.92584666740132" height="230.92584666740132" width="236.55132415727465"><g><svg xmlns="http://www.w3.org/2000/svg" xmlns:xlink="http://www.w3.org/1999/xlink" version="1.1" x="0" y="0" viewBox="8 8.900001525878906 84.0999984741211 82.0999984741211" style="enable-background:new 0 0 100 100;" xml:space="preserve" height="230.92584666740132" width="236.55132415727465" class="icon-icon-0" data-fill-palette-color="accent" id="icon-0"><g fill="#39cccc" data-fill-palette-color="accent"><path d="M81 9c-6.1 0-11 4.9-11 11 0 1.2 0.2 2.4 0.6 3.6L54.3 39.9C53 39.3 51.5 39 50 39c-6.1 0-11 4.9-11 11s4.9 11 11 11 11-4.9 11-11c0-2.4-0.8-4.5-2-6.3l15.1-15.1C76 30.1 78.4 31 81 31c6.1 0 11-4.9 11-11S87.1 9 81 9zM50 55c-2.8 0-5-2.2-5-5s2.2-5 5-5 5 2.2 5 5S52.8 55 50 55zM81 25c-2.8 0-5-2.2-5-5s2.2-5 5-5 5 2.2 5 5S83.8 25 81 25z" fill="#39cccc" data-fill-palette-color="accent"></path><path d="M50 31c6.1 0 11-4.9 11-11S56.1 9 50 9s-11 4.9-11 11S43.9 31 50 31zM50 15c2.8 0 5 2.2 5 5s-2.2 5-5 5-5-2.2-5-5S47.2 15 50 15z" fill="#39cccc" data-fill-palette-color="accent"></path><path d="M81 39c-6.1 0-11 4.9-11 11s4.9 11 11 11 11-4.9 11-11S87.1 39 81 39zM81 55c-2.8 0-5-2.2-5-5s2.2-5 5-5 5 2.2 5 5S83.8 55 81 55z" fill="#39cccc" data-fill-palette-color="accent"></path><path d="M19 91c6.1 0 11-4.9 11-11s-4.9-11-11-11S8 73.9 8 80 12.9 91 19 91zM19 75c2.8 0 5 2.2 5 5s-2.2 5-5 5-5-2.2-5-5S16.2 75 19 75z" fill="#39cccc" data-fill-palette-color="accent"></path><path d="M81 69c-5 0-9.3 3.4-10.6 8h-9.9c-1.3-4.6-5.5-8-10.6-8-3 0-5.8 1.2-7.8 3.2l-15-15C29 55.3 30 52.8 30 50c0-5-3.4-9.3-8-10.6v-8.9c4.6-1.3 8-5.5 8-10.6 0-6.1-4.9-11-11-11S8 13.9 8 20c0 5 3.4 9.3 8 10.6v8.9C11.4 40.7 8 45 8 50c0 6.1 4.9 11 11 11 1.1 0 2.1-0.2 3.1-0.4l17.2 17.2C39.1 78.5 39 79.2 39 80c0 6.1 4.9 11 11 11 5 0 9.3-3.4 10.6-8h9.9c1.3 4.6 5.5 8 10.6 8 6.1 0 11-4.9 11-11S87.1 69 81 69zM14 20c0-2.8 2.2-5 5-5s5 2.2 5 5-2.2 5-5 5S14 22.8 14 20zM14 50c0-2.8 2.2-5 5-5s5 2.2 5 5-2.2 5-5 5S14 52.8 14 50zM50 85c-2.8 0-5-2.2-5-5s2.2-5 5-5 5 2.2 5 5S52.8 85 50 85zM81 85c-2.8 0-5-2.2-5-5s2.2-5 5-5 5 2.2 5 5S83.8 85 81 85z" fill="#39cccc" data-fill-palette-color="accent"></path></g></svg></g></svg></g></svg></g></svg></g><defs><mask></mask></defs><mask id="620a52b3-a8f0-43e8-bd6c-025d6f27b5f9"><g id="SvgjsG8124"><svg viewBox="0 0 395.52 153.41651638158487" height="153.41651638158487" width="395.52"><g><svg viewBox="0 0 395.52 153.41651638158487" height="153.41651638158487" width="395.52"><g><svg viewBox="0 0 637.3012913213038 247.2" height="153.41651638158487" width="395.52"><g transform="matrix(1,0,0,1,254.53215838072987,0)"><svg viewBox="0 0 382.76913294057385 247.2" height="247.2" width="382.76913294057385"><g id="SvgjsG8123"><svg viewBox="0 0 382.76913294057385 247.2" height="247.2" width="382.76913294057385" id="SvgjsSvg8122"><g><svg viewBox="0 0 382.76913294057385 247.2" height="247.2" width="382.76913294057385"><g transform="matrix(1,0,0,1,0,0)"><svg width="382.76913294057385" viewBox="0.39999866485595703 -29.299999237060547 184.18442504882813 114.19999694824219" height="247.2" data-palette-color="url(#781eb940-c74b-4fb2-b9b5-bbf92b599421)"><g transform="matrix(1,0,0,1,0,0)"><g><svg width="12.056279296875" viewBox="1.7799999713897705 -36.36000061035156 74.20999908447266 36.36000061035156" height="5.907" data-palette-color="url(#781eb940-c74b-4fb2-b9b5-bbf92b599421)" id="SvgjsSvg8121" x="172.5281407718308" y="67.393"><path d="M12.91-30.02L1.78-30.02 1.78-36.36 31.64-36.36 31.64-30.02 20.51-30.02 20.51 0 12.91 0 12.91-30.02ZM36.57 0L36.57-36.36 46.06-36.36 56.07-11.93 56.5-11.93 66.51-36.36 75.99-36.36 75.99 0 68.53 0 68.53-23.67 68.23-23.67 58.82-0.18 53.74-0.18 44.33-23.76 44.03-23.76 44.03 0 36.57 0Z" opacity="1" transform="matrix(1,0,0,1,0,0)" fill="white" class="undefined-123" id="SvgjsPath8120"></path></svg></g></g><svg></svg><svg></svg><svg></svg><g class="wordmark-text-0" data-fill-palette-color="primary" id="SvgjsG8119"><path xmlns="http://www.w3.org/2000/svg" d="M14.7-7.25v1c0 1.9 0.083 3.983 0.25 6.25v0h-11c-1.367-5.3-2.05-10.933-2.05-16.9v0c0-3.033 0.183-5.733 0.55-8.1v0h27.1c0.967 3.767 1.5 8.25 1.6 13.45v0c-4.933 2.2-10.417 3.633-16.45 4.3zM14.75-10.7v0c2.133-0.267 3.917-0.8 5.35-1.6v0c-0.533-3.533-1.967-6.667-4.3-9.4v0c-0.533 3.3-0.883 6.967-1.05 11zM36.8-25h13.5v1.35c0 8.8-0.55 16.683-1.65 23.65v0h-12c0.633-3.067 0.95-6.61 0.95-10.63 0-4.013-0.267-8.803-0.8-14.37zM86.75-24.05v0c-1.067 0.267-1.993 0.4-2.78 0.4-0.78 0-1.52-0.05-2.22-0.15v0c-1.967 1.4-4.333 3.683-7.1 6.85v0c4.033 6.3 7.25 11.95 9.65 16.95v0h-12.45c-1.367-2.933-2.733-5.583-4.1-7.95v0c-3.7 5.267-6.55 9.933-8.55 14v0c-0.667 0.167-1.65 0.393-2.95 0.68-1.3 0.28-2.233 0.487-2.8 0.62v0c2.8-5 6.983-11.067 12.55-18.2v0c-3.433-5.367-7.317-10.083-11.65-14.15v0h15.55c0.767 1.633 1.833 3.5 3.2 5.6v0c0.267-0.3 0.783-0.91 1.55-1.83 0.767-0.913 1.367-1.603 1.8-2.07 0.433-0.467 1-1.033 1.7-1.7v0c1.367-1.3 2.783-2.217 4.25-2.75v0c0.567-0.167 1.717-0.343 3.45-0.53 1.733-0.18 2.983-0.52 3.75-1.02v0c-0.8 1.833-1.75 3.583-2.85 5.25zM119.15-0.4v0 0.4h-11.6c-0.133-1.9-0.417-3.867-0.85-5.9v0c-2.067 2.1-4.4 4.067-7 5.9v0h-11.65c-0.233-1.367-0.35-3.177-0.35-5.43 0-2.247 0.333-4.503 1-6.77v0c2.4-0.7 4.71-1.883 6.93-3.55 2.213-1.667 3.82-3.467 4.82-5.4v0c-0.9-1.4-1.85-2.683-2.85-3.85v0h16.6c3.3 7.167 4.95 15.367 4.95 24.6zM105.8-9.55v0c-0.867-2.967-2-5.767-3.4-8.4v0c-1.567 4.6-2.467 8.95-2.7 13.05v0c2.4-1.233 4.433-2.783 6.1-4.65zM124.75-15.25v0l3.35 0.05c5.133 0 8.567-0.283 10.3-0.85v0c-1.067 1.733-2.317 3.35-3.75 4.85v0h-1.5c-5.033 0-9.183-0.35-12.45-1.05v0l0.75-0.65c1.433-1.267 2.533-2.05 3.3-2.35z" fill="white" fill-rule="nonzero" stroke="none" stroke-width="1" stroke-linecap="butt" stroke-linejoin="miter" stroke-miterlimit="10" stroke-dasharray="" stroke-dashoffset="0" font-family="none" font-weight="none" font-size="none" text-anchor="none" style="mix-blend-mode: normal" opacity="1"></path><path xmlns="http://www.w3.org/2000/svg" d="M21.45 22.6v0c0-2.433-0.433-5.083-1.3-7.95v0h13.35c0.033 0.5 0.05 1.233 0.05 2.2v0c0 4.267-0.567 7.783-1.7 10.55v0c-3.067 1.333-5.523 2.677-7.37 4.03-1.853 1.347-2.78 2.737-2.78 4.17 0 1.433 0.617 2.783 1.85 4.05v0h-12.55c-5.633-7.167-9.167-15.5-10.6-25v0h13.65c0.133 6.1 1.7 12.05 4.7 17.85v0c1.8-3 2.7-6.3 2.7-9.9zM55.9 24.7v0l4.7 0.3c0.467 0 0.817-0.017 1.05-0.05v0l-2.35 4.4h-0.45c-0.633 0-1.533-0.177-2.7-0.53-1.167-0.347-2-0.52-2.5-0.52v0c-1.367 0-2.45 0.883-3.25 2.65v0c-0.133 1.633-0.233 3.267-0.3 4.9v0c1.733 0.333 3.1 0.5 4.1 0.5v0h0.45c1.433 0 2.577-0.317 3.43-0.95 0.847-0.633 1.453-1.767 1.82-3.4v0l6 0.25c-0.5 2.867-1.167 5.333-2 7.4v0h-24.55c-0.667-4.5-1-8.967-1-13.4 0-4.433 0.233-8.3 0.7-11.6v0h26.8c-0.6 3.6-1.133 6.133-1.6 7.6v0c-1.967 0.1-3.767 0.167-5.4 0.2v0c0.267-0.767 0.4-1.483 0.4-2.15v0c0-1.6-1.2-2.4-3.6-2.4v0c-0.9 0-1.9 0.1-3 0.3v0c-0.733 3.167-1.3 5.95-1.7 8.35v0c1.333-1.233 2.983-1.85 4.95-1.85zM99.8 23.35v0l-0.05 1.7c-2.667 1.433-6 2.55-10 3.35v0c2.867 0.767 5.633 1.15 8.3 1.15v0h1.05c1.833 2.7 3.017 6.067 3.55 10.1v0h-12.95c-0.333-2.333-1.007-4.343-2.02-6.03-1.02-1.68-2.263-2.82-3.73-3.42v0c-0.033 0.567-0.05 1.7-0.05 3.4 0 1.7 0.1 3.717 0.3 6.05v0h-10.9c-0.967-4.833-1.45-9.327-1.45-13.48 0-4.147 0.233-7.987 0.7-11.52v0h26.1c0.767 3.367 1.15 6.267 1.15 8.7zM85 18v0c-0.4 2.933-0.7 5.817-0.9 8.65v0c1.833-0.267 3.333-0.917 4.5-1.95v0c-0.633-2.233-1.833-4.467-3.6-6.7zM125.15 17.65v0c-1.333-0.2-2.757-0.3-4.27-0.3-1.52 0-2.997 0.1-4.43 0.3v0c0.9 1.533 1.967 2.783 3.2 3.75 1.233 0.967 2.793 1.923 4.68 2.87 1.88 0.953 3.413 1.83 4.6 2.63 1.18 0.8 2.487 2.117 3.92 3.95 1.433 1.833 2.333 3.75 2.7 5.75v0c-1.6 2.067-3.717 3.893-6.35 5.48-2.633 1.58-5.333 2.637-8.1 3.17v0c-1.867-0.167-4.223-0.69-7.07-1.57-2.853-0.887-4.997-1.33-6.43-1.33-1.433 0-2.867 0.45-4.3 1.35v0c0.6-1.7 1.583-3.833 2.95-6.4v0h0.4c2.133 0 4.14 0.333 6.02 1 1.887 0.667 3.607 1.333 5.16 2 1.547 0.667 2.797 1 3.75 1 0.947 0 1.637-0.067 2.07-0.2v0c0-2.2-0.683-4.017-2.05-5.45v0c-0.733-0.767-1.36-1.36-1.88-1.78-0.513-0.413-1.303-0.987-2.37-1.72v0l-0.85-0.6c-2.267-1.567-4.133-3.16-5.6-4.78-1.467-1.613-2.533-3.603-3.2-5.97v0c1.067-2.367 2.117-4.417 3.15-6.15v0c3.167-0.767 6.45-1.15 9.85-1.15v0h2.2c2.867 0 6.15 0.4 9.85 1.2v0c-0.533 2.2-1.183 4.183-1.95 5.95v0c-2.8 0.2-4.967 0.3-6.5 0.3v0c0.3-0.767 0.583-1.867 0.85-3.3zM156.5 24.7v0l4.7 0.3c0.467 0 0.817-0.017 1.05-0.05v0l-2.35 4.4h-0.45c-0.633 0-1.533-0.177-2.7-0.53-1.167-0.347-2-0.52-2.5-0.52v0c-1.367 0-2.45 0.883-3.25 2.65v0c-0.133 1.633-0.233 3.267-0.3 4.9v0c1.733 0.333 3.1 0.5 4.1 0.5v0h0.45c1.433 0 2.577-0.317 3.43-0.95 0.847-0.633 1.453-1.767 1.82-3.4v0l6 0.25c-0.5 2.867-1.167 5.333-2 7.4v0h-24.55c-0.667-4.5-1-8.967-1-13.4 0-4.433 0.233-8.3 0.7-11.6v0h26.8c-0.6 3.6-1.133 6.133-1.6 7.6v0c-1.967 0.1-3.767 0.167-5.4 0.2v0c0.267-0.767 0.4-1.483 0.4-2.15v0c0-1.6-1.2-2.4-3.6-2.4v0c-0.9 0-1.9 0.1-3 0.3v0c-0.733 3.167-1.3 5.95-1.7 8.35v0c1.333-1.233 2.983-1.85 4.95-1.85z" fill="white" fill-rule="nonzero" stroke="none" stroke-width="1" stroke-linecap="butt" stroke-linejoin="miter" stroke-miterlimit="10" stroke-dasharray="" stroke-dashoffset="0" font-family="none" font-weight="none" font-size="none" text-anchor="none" style="mix-blend-mode: normal" opacity="1"></path><path xmlns="http://www.w3.org/2000/svg" d="M13.7 75.45c1.567 0.367 3.067 0.55 4.5 0.55 1.433 0 2.577-0.327 3.43-0.98 0.847-0.647 1.47-1.77 1.87-3.37v0l6 0.2c-0.5 3-1.167 5.483-2 7.45v0h-24.55c-0.633-4.267-0.95-8.683-0.95-13.25 0-4.567 0.233-8.483 0.7-11.75v0h14.4c-2.2 8.433-3.333 15.483-3.4 21.15zM64.6 78.9v0 0.4h-11.6c-0.133-1.9-0.417-3.867-0.85-5.9v0c-2.067 2.1-4.4 4.067-7 5.9v0h-11.65c-0.233-1.367-0.35-3.177-0.35-5.43 0-2.247 0.333-4.503 1-6.77v0c2.4-0.7 4.71-1.883 6.93-3.55 2.213-1.667 3.82-3.467 4.82-5.4v0c-0.9-1.4-1.85-2.683-2.85-3.85v0h16.6c3.3 7.167 4.95 15.367 4.95 24.6zM51.25 69.75v0c-0.867-2.967-2-5.767-3.4-8.4v0c-1.567 4.6-2.467 8.95-2.7 13.05v0c2.4-1.233 4.433-2.783 6.1-4.65zM81.65 76.05v0c2.267 0 4.117-0.183 5.55-0.55v0c-0.6-3.7-2.3-6.45-5.1-8.25v0c-0.3 2.967-0.45 5.9-0.45 8.8zM69.05 64.3v0c0-3.5 0.317-6.833 0.95-10v0h27.75c-1.5 4.667-4.367 8.05-8.6 10.15v0c3.833 1.367 6.9 3.267 9.2 5.7v0c-0.3 3.1-1.017 6.15-2.15 9.15v0h-25.15c-1.333-4.633-2-9.633-2-15zM82.5 63.8v0c1.633-0.433 3.15-1.183 4.55-2.25 1.4-1.067 2.4-2.383 3-3.95v0c-2.667 0-4.833 0.083-6.5 0.25v0c-0.4 1.933-0.75 3.917-1.05 5.95zM121.45 57.3v0c-1.333-0.2-2.757-0.3-4.27-0.3-1.52 0-2.997 0.1-4.43 0.3v0c0.9 1.533 1.967 2.783 3.2 3.75 1.233 0.967 2.793 1.923 4.68 2.87 1.88 0.953 3.413 1.83 4.6 2.63 1.18 0.8 2.487 2.117 3.92 3.95 1.433 1.833 2.333 3.75 2.7 5.75v0c-1.6 2.067-3.717 3.893-6.35 5.48-2.633 1.58-5.333 2.637-8.1 3.17v0c-1.867-0.167-4.223-0.69-7.07-1.57-2.853-0.887-4.997-1.33-6.43-1.33-1.433 0-2.867 0.45-4.3 1.35v0c0.6-1.7 1.583-3.833 2.95-6.4v0h0.4c2.133 0 4.143 0.333 6.03 1 1.88 0.667 3.597 1.333 5.15 2 1.547 0.667 2.797 1 3.75 1 0.947 0 1.637-0.067 2.07-0.2v0c0-2.2-0.683-4.017-2.05-5.45v0c-0.733-0.767-1.357-1.36-1.87-1.78-0.52-0.413-1.313-0.987-2.38-1.72v0l-0.85-0.6c-2.267-1.567-4.133-3.16-5.6-4.78-1.467-1.613-2.533-3.603-3.2-5.97v0c1.067-2.367 2.117-4.417 3.15-6.15v0c3.167-0.767 6.45-1.15 9.85-1.15v0h2.2c2.867 0 6.15 0.4 9.85 1.2v0c-0.533 2.2-1.183 4.183-1.95 5.95v0c-2.8 0.2-4.967 0.3-6.5 0.3v0c0.3-0.767 0.583-1.867 0.85-3.3z" fill="white" fill-rule="nonzero" stroke="none" stroke-width="1" stroke-linecap="butt" stroke-linejoin="miter" stroke-miterlimit="10" stroke-dasharray="" stroke-dashoffset="0" font-family="none" font-weight="none" font-size="none" text-anchor="none" style="mix-blend-mode: normal" opacity="1"></path></g></svg></g></svg></g></svg></g></svg></g><g transform="matrix(1,0,0,1,0,8.137076666299336)"><svg viewBox="0 0 236.55132415727465 230.92584666740132" height="230.92584666740132" width="236.55132415727465"><g><svg xmlns="http://www.w3.org/2000/svg" xmlns:xlink="http://www.w3.org/1999/xlink" version="1.1" x="0" y="0" viewBox="8 8.900001525878906 84.0999984741211 82.0999984741211" style="enable-background:new 0 0 100 100;" xml:space="preserve" height="230.92584666740132" width="236.55132415727465" class="icon-icon-0" data-fill-palette-color="accent" id="SvgjsSvg8118"></svg></g></svg></g></svg></g></svg></g><defs><mask></mask></defs></svg></g></mask><linearGradient x1="0.054" x2="0.941" y1="0.5" y2="0.5" id="781eb940-c74b-4fb2-b9b5-bbf92b599421"><stop stop-color="#8c8c8c" offset="0"></stop><stop stop-color="#e3e4e5" offset="0.498"></stop><stop stop-color="#8c8c8c" offset="1"></stop></linearGradient><rect width="395.5199890136719" height="153.41651916503906" fill="url(#781eb940-c74b-4fb2-b9b5-bbf92b599421)" mask="url(#620a52b3-a8f0-43e8-bd6c-025d6f27b5f9)" data-fill-palette-color="primary"></rect></svg><rect width="395.52" height="153.41651638158487" fill="none" stroke="none" visibility="hidden"></rect></g></svg></g></svg>